# xmcd CD database file
#
# Track frame offsets:
#	150
#	19487
#	33050
#	52385
#	70658
#	86637
#	99767
#	118186
#	139377
#	155526
#	183950
#
# Disc length: 2788 seconds
#
# Revision: 8
# Processed by: cddbd v1.5.2PL0 Copyright (c) Steve Scherf et al.
# Submitted via: CDex 1.99.1
#
DISCID=940ae20b
DTITLE=Rebekka Bakken - Is that you
DYEAR=2005
DGENRE=Jazz
TTITLE0=As tears clear our eyes
TTITLE1=As i lay myself bare
TTITLE2=Didn't i
TTITLE3=Going home-is a lonely travel
TTITLE4=Is that you?
TTITLE5=Even if you buy me thousand cars
TTITLE6=Why do all the good guys get the dragons?
TTITLE7=So ro
TTITLE8=Just a little moon
TTITLE9=Innocence
TTITLE10=As long as there is a voyage away
EXTD=YEAR: 2005
EXTT0=
EXTT1=
EXTT2=
EXTT3=
EXTT4=
EXTT5=
EXTT6=
EXTT7=
EXTT8=
EXTT9=
EXTT10=
PLAYORDER=
